<svg xmlns="http://www.w3.org/2000/svg" width="1440" height="500" viewBox="0 0 1440 500">
  <defs><marker id="a" markerWidth="8" markerHeight="8" refX="7" refY="4" orient="auto"><path d="M0 0L8 4L0 8Z" fill="#232830"/></marker></defs>
  <style>text{font-family:Arial,'Noto Sans SC',sans-serif;fill:#252930}.h{font-size:20px;font-weight:700}.l{font-size:15px}.s{font-size:12px;fill:#687487}.box{fill:#e3e7ec;stroke:#3d4651;stroke-width:1.5}.gpu{fill:#b9cff0;stroke:#3d4651;stroke-width:1.5}.kv{fill:#d6e9ce;stroke:#3d4651;stroke-width:1.5}</style>
  <rect width="1440" height="500" fill="#fff"/>
  <text class="h" x="360" y="38" text-anchor="middle">图 3a：修复前的执行时间线（GIL 未释放）</text><text class="h" x="1080" y="38" text-anchor="middle">图 3b：修复后的执行时间线（GIL 已释放）</text>
  <g transform="translate(0 0)"><text class="h" x="35" y="148">CPU</text><text class="h" x="35" y="302">GPU</text><text class="h" x="35" y="385">传输</text><text class="l" x="105" y="108">DeepEP 主机调用</text><text class="l" x="105" y="183">Mooncake 主机调用</text>
    <line x1="240" y1="115" x2="660" y2="115" stroke="#ccd3dc"/><line x1="240" y1="190" x2="660" y2="190" stroke="#ccd3dc"/><rect class="box" x="250" y="95" width="170" height="40"/><text class="l" x="335" y="120" text-anchor="middle">发起 dispatch</text><rect class="box" x="535" y="95" width="105" height="40"/><text class="l" x="587" y="120" text-anchor="middle">发起 combine</text>
    <rect x="290" y="170" width="130" height="40" fill="#fff" stroke="#3d4651" stroke-width="1.5"/><path d="M290 210L330 170M310 210L350 170M330 210L370 170M350 210L390 170M370 210L410 170" stroke="#66717e"/><text class="l" x="355" y="195" text-anchor="middle">等待 GIL</text><rect class="box" x="420" y="170" width="70" height="40"/><text class="l" x="455" y="195" text-anchor="middle">提交</text>
    <rect class="gpu" x="330" y="270" width="235" height="42"/><text class="l" x="447" y="296" text-anchor="middle">执行计算</text><rect class="kv" x="505" y="358" width="155" height="42"/><text class="l" x="582" y="384" text-anchor="middle">KV 传输</text><path d="M490 210V358" fill="none" stroke="#333" stroke-dasharray="5 4" marker-end="url(#a)"/><text x="470" y="435" font-family="Arial,'Noto Sans SC'" font-size="14" fill="#e24b45">提交延迟，重叠较少</text><line x1="240" y1="460" x2="660" y2="460" stroke="#222" marker-end="url(#a)"/><text class="l" x="640" y="482">时间</text></g>
  <g transform="translate(720 0)"><text class="h" x="35" y="148">CPU</text><text class="h" x="35" y="302">GPU</text><text class="h" x="35" y="385">传输</text><text class="l" x="105" y="108">DeepEP 主机调用</text><text class="l" x="105" y="183">Mooncake 主机调用</text>
    <line x1="240" y1="115" x2="660" y2="115" stroke="#ccd3dc"/><line x1="240" y1="190" x2="660" y2="190" stroke="#ccd3dc"/><rect x="270" y="95" width="170" height="40" fill="#e3e7ec" stroke="#3d4651" stroke-width="1.5" stroke-dasharray="4 3"/><text class="l" x="355" y="120" text-anchor="middle">发起 dispatch</text><rect x="565" y="95" width="95" height="40" fill="#e3e7ec" stroke="#3d4651" stroke-width="1.5" stroke-dasharray="4 3"/><text class="l" x="612" y="120" text-anchor="middle">发起 combine</text>
    <rect class="box" x="310" y="170" width="70" height="40"/><text class="l" x="345" y="195" text-anchor="middle">提交</text><rect class="gpu" x="350" y="270" width="235" height="42"/><text class="l" x="467" y="296" text-anchor="middle">执行计算</text><rect class="kv" x="388" y="358" width="155" height="42"/><text class="l" x="465" y="384" text-anchor="middle">KV 传输</text><path d="M380 210V358" fill="none" stroke="#333" stroke-dasharray="5 4" marker-end="url(#a)"/><text x="382" y="435" font-family="Arial,'Noto Sans SC'" font-size="14" fill="#159463">计算与传输重叠更多</text><line x1="240" y1="460" x2="660" y2="460" stroke="#222" marker-end="url(#a)"/><text class="l" x="640" y="482">时间</text></g>
</svg>
